<svg width="159" height="30" viewBox="0 0 159 30" fill="none" xmlns="http://www.w3.org/2000/svg">
<g clip-path="url(#clip0_4026_169)">
<mask id="mask0_4026_169" style="mask-type:luminance" maskUnits="userSpaceOnUse" x="0" y="0" width="159" height="30">
<path d="M159 0H0V30H159V0Z" fill="white"/>
</mask>
<g mask="url(#mask0_4026_169)">
<path fill-rule="evenodd" clip-rule="evenodd" d="M144.837 28.3695H149.625C158.869 28.3695 160.273 15.8707 152.115 14.3348C152.117 14.3339 152.117 14.3324 152.115 14.3304C152.114 14.3337 152.114 14.3352 152.115 14.3348C158.486 12.3153 157.045 1.5 149.353 1.5H138.872C138.451 1.5 138.093 1.85283 138.093 2.26786V22.3027L139.754 20.6792L139.73 3.03924L139.73 3.03503H149.158C156.436 3.03503 156.15 13.7055 149.158 13.8224H146.729L145.128 15.3955H149.431C157.787 15.3955 158.022 26.8345 149.431 26.8345H145.378C145.214 27.3549 145.032 27.8633 144.837 28.3695ZM127.547 18.6383L118.173 18.7048L117.609 20.2426L128.189 20.1706L131.395 28.0008C131.446 28.1552 131.544 28.2764 131.686 28.3664C131.83 28.4557 131.992 28.5 132.174 28.5C132.407 28.5 132.603 28.437 132.758 28.3089C132.914 28.1808 132.992 28.0008 132.992 27.7709C132.992 27.6428 132.979 27.5404 132.953 27.4642L122.473 2.05287C122.42 1.89916 122.33 1.778 122.2 1.68798C122.07 1.59936 121.901 1.55366 121.693 1.55366C121.512 1.55366 121.363 1.58621 121.245 1.6499C121.129 1.71361 121.031 1.84862 120.953 2.05287L110.474 27.4642C110.422 27.6172 110.408 27.7453 110.434 27.8485C110.46 28.0278 110.538 28.1808 110.668 28.3089C110.798 28.437 110.992 28.5 111.252 28.5C111.408 28.5 111.551 28.4557 111.681 28.3664C111.811 28.2764 111.901 28.1552 111.953 28.0008L121.583 4.14933L127.547 18.6383ZM104.062 26.9265C104.269 26.9265 104.451 27.0034 104.607 27.1564C104.764 27.3101 104.841 27.4902 104.841 27.6937C104.841 27.9236 104.764 28.1105 104.607 28.2504C104.451 28.3916 104.269 28.4616 104.062 28.4616H89.763C89.5297 28.4616 89.3407 28.3847 89.1987 28.2317C89.0554 28.078 88.9844 27.8994 88.9844 27.6937V2.35996C88.9844 2.1557 89.0624 1.97568 89.2184 1.82197C89.3737 1.66895 89.5691 1.5921 89.8024 1.5921C90.0364 1.5921 90.2311 1.66895 90.3871 1.82197C90.5431 1.97568 90.6211 2.1557 90.6211 2.35996V26.9265H90.617H104.062Z" fill="#212121"/>
<path fill-rule="evenodd" clip-rule="evenodd" d="M81.7115 1.88267C82.2973 2.13697 82.8154 2.47477 83.2494 2.90295C83.6839 3.33049 84.0338 3.83284 84.2843 4.41061C84.5436 4.98774 84.6733 5.60352 84.6733 6.26354V7.70389C84.6733 8.05663 84.5063 8.28102 84.171 8.38696L80.6678 9.29441C80.3325 9.39227 80.1655 9.26451 80.1655 8.91238V6.45924C80.1655 6.2037 80.0744 5.99366 79.8992 5.81356C79.7164 5.6409 79.5032 5.55054 79.2438 5.55054H78.9319C78.6808 5.55054 78.46 5.6409 78.2772 5.81356C78.102 5.99366 78.0109 6.2037 78.0109 6.45924V9.89462C78.0413 10.1801 78.0862 10.4125 78.1627 10.6145C78.2386 10.817 78.3835 11.0202 78.5821 11.2228L83.6226 14.9293C84.0338 15.2808 84.3001 15.641 84.4146 16.0013C84.5284 16.3696 84.6119 16.7741 84.6657 17.2322V23.7365C84.6657 24.389 84.5367 25.0036 84.2773 25.5894C84.0186 26.1665 83.6757 26.677 83.2418 27.1052C82.8078 27.5327 82.2903 27.8774 81.7033 28.1254C81.11 28.3729 80.485 28.5 79.815 28.5H78.3531C77.6902 28.5 77.0582 28.3729 76.4649 28.1254C75.8702 27.8699 75.361 27.5327 74.9264 27.1052C74.4925 26.677 74.142 26.1753 73.8909 25.5894C73.6328 25.0123 73.5025 24.3965 73.5025 23.7365V20.1129C73.5025 19.7601 73.6701 19.5357 74.0054 19.4298L77.508 18.5223C77.8426 18.4245 78.0109 18.5522 78.0109 18.905V23.5563C78.0109 23.8038 78.102 24.0219 78.2772 24.1939C78.4518 24.3734 78.6732 24.4563 78.9319 24.4563H79.2438C79.5032 24.4563 79.7164 24.3666 79.8992 24.1939C80.082 24.0219 80.1655 23.8038 80.1655 23.5563V18.5672C80.1427 18.2369 80.089 17.9527 80.0137 17.6971C79.9365 17.4497 79.7847 17.2166 79.5563 17.014L74.5911 13.2708C74.2028 12.9174 73.9288 12.5659 73.7618 12.2131C73.5936 11.8604 73.5107 11.3873 73.5107 10.8102V6.27101C73.5107 5.61785 73.6398 5.00332 73.8985 4.41747C74.1502 3.84031 74.5001 3.33049 74.9347 2.91042C75.3686 2.48287 75.8861 2.13697 76.4725 1.89017C77.0582 1.64273 77.6902 1.51433 78.3607 1.51433H79.8233C80.4932 1.5 81.1169 1.62715 81.7115 1.88267ZM71.0512 27.6972C71.0512 28.05 70.8684 28.2227 70.5103 28.2227H67.0836C66.7256 28.2227 66.5428 28.0425 66.5428 27.6972V2.28717C66.5428 1.9344 66.7256 1.7543 67.0836 1.7543H70.5103C70.8684 1.7543 71.0512 1.9344 71.0512 2.28717V27.6972ZM61.0911 1.88267C61.6776 2.13697 62.195 2.47477 62.6289 2.90295C63.0635 3.33049 63.4134 3.83284 63.6727 4.41061C63.9308 4.98774 64.0605 5.60352 64.0605 6.26354V7.70389C64.0605 8.05663 63.8935 8.28102 63.5582 8.38696L60.0556 9.29441C59.7197 9.39227 59.5527 9.26451 59.5527 8.91238V6.45924C59.5527 6.2037 59.4692 5.99366 59.2864 5.81356C59.1105 5.6409 58.8904 5.55054 58.6316 5.55054H58.3192C58.0604 5.55054 57.8472 5.6409 57.6644 5.81356C57.4892 5.99366 57.3981 6.2037 57.3981 6.45924V9.89462C57.4209 10.1801 57.4747 10.4125 57.5499 10.6145C57.6265 10.817 57.7707 11.0202 57.9763 11.2228L63.0174 14.9293C63.4292 15.2808 63.6949 15.641 63.8094 16.0013C63.9239 16.3696 64.0074 16.7741 64.0605 17.2322V23.7365C64.0605 24.389 63.9308 25.0036 63.6727 25.5894C63.4134 26.1665 63.0711 26.677 62.6289 27.1052C62.195 27.5327 61.6776 27.8774 61.0911 28.1254C60.4972 28.3729 59.8728 28.5 59.2022 28.5H57.7403C57.0774 28.5 56.4467 28.3729 55.8521 28.1254C55.2587 27.8699 54.7482 27.5327 54.3136 27.1052C53.8797 26.677 53.5298 26.1753 53.2705 25.5894C53.0124 25.0123 52.8821 24.3965 52.8821 23.7365V20.1129C52.8821 19.7601 53.0503 19.5357 53.385 19.4298L56.8876 18.5223C57.2222 18.4245 57.3905 18.5522 57.3905 18.905V23.5563C57.3905 23.8038 57.4816 24.0219 57.6575 24.1939C57.8397 24.3734 58.0535 24.4563 58.3116 24.4563H58.6234C58.8752 24.4563 59.096 24.3666 59.2788 24.1939C59.4616 24.0219 59.5457 23.8038 59.5457 23.5563V18.5672C59.5223 18.2369 59.4686 17.952 59.3933 17.6971C59.3237 17.4497 59.1643 17.2166 58.9365 17.014L53.9714 13.2558C53.5823 12.9031 53.3085 12.5503 53.1414 12.1975C52.9738 11.8454 52.8903 11.373 52.8903 10.7946V6.25607C52.8903 5.60352 53.0124 4.98774 53.2781 4.40311C53.5298 3.82473 53.8797 3.31491 54.3219 2.89484C54.7558 2.4673 55.2663 2.12264 55.8597 1.87459C56.4467 1.62715 57.0774 1.5 57.7486 1.5H59.2105C59.8734 1.5 60.4972 1.62715 61.0911 1.88267ZM46.0824 6.44367C46.0824 6.18812 45.9995 5.97808 45.8167 5.79796C45.6339 5.61785 45.4207 5.53621 45.1683 5.53621H44.8565C44.5971 5.53621 44.3839 5.62596 44.2017 5.79796C44.0271 5.97061 43.9272 6.18812 43.9272 6.44367V17.0652V23.5333C43.9272 23.7888 44.0189 24.0063 44.2017 24.179C44.3839 24.3591 44.5971 24.4489 44.8565 24.4489H45.1683C45.4207 24.4489 45.6409 24.3591 45.8167 24.179C45.9995 24.0063 46.0824 23.7888 46.0824 23.5333V6.44367ZM50.5908 23.7215C50.5908 24.3734 50.4612 24.9892 50.2094 25.5738C49.9513 26.1522 49.6078 26.6627 49.1669 27.0896C48.7329 27.5171 48.2149 27.8624 47.6285 28.1098C47.0345 28.3573 46.4101 28.4857 45.7402 28.4857H44.2783C43.6077 28.4857 42.9834 28.3573 42.39 28.1098C41.7954 27.8556 41.2849 27.5171 40.8516 27.0896C40.4176 26.6627 40.0672 26.1597 39.8084 25.5738C39.5491 24.9967 39.42 24.3822 39.42 23.7215V6.26354C39.42 5.61099 39.5491 4.99584 39.8084 4.41061C40.0672 3.83284 40.41 3.32302 40.8516 2.90295C41.2849 2.47477 41.803 2.13011 42.39 1.88267C42.9758 1.63462 43.6077 1.50686 44.2783 1.50686H45.7402C46.4025 1.50686 47.0345 1.63462 47.6285 1.88267C48.2149 2.13697 48.7329 2.47477 49.1669 2.90295C49.6078 3.33049 49.9513 3.83284 50.2094 4.41061C50.4612 4.98774 50.5908 5.60352 50.5908 6.26354V23.7215ZM37.1883 2.28717V5.66334C37.1883 6.0161 37.0055 6.18812 36.6487 6.18812H33.9222V27.6898C33.9222 28.0425 33.7394 28.2152 33.3814 28.2152H29.9547C29.8256 28.2152 29.7035 28.1628 29.589 28.0656C29.4752 27.9671 29.4138 27.84 29.4138 27.6898V6.19623H26.7266C26.3685 6.19623 26.1933 6.02359 26.1933 5.67083V2.29466C26.1933 1.94251 26.3685 1.7624 26.7266 1.7624H36.6404C37.0055 1.7624 37.1883 1.94251 37.1883 2.28717ZM23.8173 27.6972C23.8173 28.05 23.6345 28.2227 23.2764 28.2227H19.8497C19.493 28.2227 19.3101 28.0425 19.3101 27.6972V2.28717C19.3101 1.9344 19.493 1.7543 19.8497 1.7543H23.2764C23.6345 1.7543 23.8173 1.9344 23.8173 2.28717V27.6972ZM16.5071 2.28717V27.6972C16.5071 28.05 16.3243 28.2227 15.9676 28.2227H12.2739C11.9158 28.2227 11.733 28.0425 11.733 27.6972V15.7464L9.19826 25.4997C9.14449 25.6268 9.08375 25.6941 9.00721 25.6941C8.93131 25.6941 8.86299 25.6268 8.8168 25.4997L6.28141 15.7464V27.6972C6.28141 28.05 6.09859 28.2227 5.74054 28.2227H2.06333C1.70529 28.2227 1.52246 28.0425 1.52246 27.6972V2.28717C1.52246 1.9344 1.69768 1.7543 2.06333 1.7543H5.32177C5.47423 1.7543 5.61149 1.81475 5.72536 1.92693C5.83986 2.03975 5.92337 2.16002 5.97712 2.28717L9.01544 15.8211L12.0531 2.28717C12.1063 2.16002 12.1898 2.03975 12.3042 1.92693C12.4188 1.81475 12.5554 1.7543 12.7078 1.7543H15.9745C16.3243 1.7624 16.5071 1.94251 16.5071 2.28717Z" fill="#212121"/>
</g>
</g>
<defs>
<clipPath id="clip0_4026_169">
<rect width="159" height="30" fill="white"/>
</clipPath>
</defs>
</svg>
